# xmcd
#
# Track frame offsets:
#	150
#	14873
#	36902
#	51132
#	72329
#	93407
#	114453
#	129881
#	145930
#	166200
#	186844
#	202542
#	225205
#	248341
#
# Disc length: 3552 seconds
#
# Revision: 0
# Processed by: cddbd v1.4PL0 Copyright (c) Steve Scherf et al.
# Submitted via: EasyCDDAExtractor 4.6.9.1
#
DISCID=af0dde0e
DTITLE=Olivia Newton-John - Angel In The Morning
DYEAR=2002
DGENRE=Country
TTITLE0=If I gotta leave
TTITLE1=Angel in the morning
TTITLE2=Just a little too much
TTITLE3=Banks of the Ohio
TTITLE4=If not for you
TTITLE5=Come on over
TTITLE6=Help me make it through the night
TTITLE7=Lullaby
TTITLE8=Where are you going to my love
TTITLE9=Me and Bobby McGee
TTITLE10=Let me be there
TTITLE11=Take me home country roads
TTITLE12=If you could read my mind
TTITLE13=In a station
EXTD=
EXTT0=
EXTT1=
EXTT2=
EXTT3=
EXTT4=
EXTT5=
EXTT6=
EXTT7=
EXTT8=
EXTT9=
EXTT10=
EXTT11=
EXTT12=
EXTT13=
PLAYORDER=
